<?xml version="1.0" standalone="no"?>
<!DOCTYPE svg PUBLIC "-//W3C//DTD SVG 20010904//EN"
 "http://www.w3.org/TR/2001/REC-SVG-20010904/DTD/svg10.dtd">
<svg version="1.0" xmlns="http://www.w3.org/2000/svg"
 width="875.000000pt" height="875.000000pt" viewBox="0 0 875.000000 875.000000"
 preserveAspectRatio="xMidYMid meet">
<metadata>
Created by potrace 1.11, written by Peter Selinger 2001-2013
</metadata>
<g transform="translate(0.000000,875.000000) scale(0.100000,-0.100000)"
fill="#000000" stroke="none">
<path d="M5767 7734 c-1 -1 -44 -5 -95 -8 -51 -4 -101 -9 -111 -11 -10 -2 -42
-6 -72 -10 -30 -4 -83 -14 -119 -22 -36 -8 -75 -17 -86 -19 -122 -23 -363
-113 -529 -198 -97 -50 -259 -148 -310 -188 -148 -116 -200 -161 -301 -262
-127 -128 -197 -211 -286 -341 -59 -85 -168 -263 -168 -274 0 -3 35 -26 78
-50 75 -43 282 -174 312 -198 8 -6 51 -40 95 -74 90 -70 199 -167 319 -281 44
-43 84 -74 87 -70 4 4 36 64 72 135 126 244 265 404 483 555 37 25 160 88 244
124 51 22 205 63 271 73 24 3 58 9 74 12 32 5 264 5 306 -1 14 -2 50 -9 80
-15 30 -6 63 -13 75 -15 37 -7 147 -43 199 -65 464 -197 771 -609 830 -1111 7
-59 7 -232 1 -265 -2 -11 -7 -45 -11 -75 -21 -162 -114 -402 -211 -542 -219
-317 -542 -521 -924 -585 -25 -4 -119 -7 -210 -7 -174 1 -279 17 -421 64 -175
59 -371 177 -500 302 -129 125 -186 202 -284 383 -27 50 -58 107 -69 127 -20
35 -139 206 -170 245 -93 115 -135 163 -221 248 -215 215 -469 385 -765 513
-45 20 -218 80 -248 87 -9 2 -42 11 -72 20 -55 15 -301 62 -330 63 -8 0 -46 4
-85 8 -163 17 -452 7 -625 -22 -73 -12 -88 -15 -185 -39 -192 -45 -398 -123
-565 -212 -82 -43 -260 -151 -270 -163 -3 -3 -21 -17 -40 -30 -127 -86 -319
-268 -436 -413 -133 -166 -288 -421 -354 -587 -12 -30 -28 -68 -35 -85 -20
-47 -75 -223 -92 -295 -23 -99 -23 -101 -34 -165 -5 -33 -12 -71 -14 -85 -19
-101 -25 -408 -12 -560 32 -373 159 -753 357 -1070 155 -250 324 -439 561
-633 86 -70 297 -202 424 -265 224 -112 431 -180 685 -227 8 -2 40 -6 70 -10
30 -4 66 -9 80 -12 46 -9 414 -11 490 -3 110 12 170 21 218 31 23 5 59 12 80
15 62 10 263 70 363 109 111 44 302 138 389 192 268 167 544 426 723 681 44
62 188 295 184 298 -1 1 -54 32 -117 69 -252 149 -439 293 -684 527 -45 43
-84 78 -88 78 -3 0 -26 -39 -49 -87 -95 -192 -165 -295 -285 -418 -248 -253
-568 -392 -924 -400 -572 -14 -1082 324 -1294 859 -32 81 -71 227 -81 306 -20
156 -7 401 26 489 6 14 10 27 9 29 -10 18 73 226 129 325 170 296 458 525 785
624 52 15 59 17 141 34 233 46 544 17 750 -71 344 -147 550 -344 748 -716 165
-310 459 -636 752 -835 347 -236 690 -363 1125 -416 83 -10 444 -10 533 0 431
48 785 179 1139 420 l118 80 97 -89 c54 -49 103 -93 109 -99 6 -5 46 -41 89
-80 43 -38 87 -79 99 -91 12 -11 62 -56 111 -100 50 -43 93 -83 97 -89 9 -11
21 1 223 225 77 85 142 157 145 160 3 3 61 68 130 144 69 76 144 160 168 185
23 25 42 48 41 51 0 3 -29 30 -63 60 -85 76 -241 217 -295 267 -25 23 -96 86
-157 140 -61 54 -116 105 -121 113 -7 11 -2 32 21 80 31 63 78 175 83 195 1 6
9 30 19 55 33 90 72 235 90 330 2 14 6 34 9 45 2 11 7 43 10 70 4 28 8 57 10
65 8 29 18 225 17 315 -2 171 -26 383 -57 505 -8 30 -16 66 -19 80 -2 14 -12
49 -21 79 -9 30 -18 62 -20 70 -2 9 -27 75 -55 146 -75 190 -168 360 -293 536
-227 321 -563 600 -932 775 -94 44 -288 122 -320 128 -5 1 -35 10 -65 19 -30
9 -66 18 -80 21 -227 45 -260 51 -390 62 -68 6 -298 12 -303 8z"/>
</g>
</svg>
